<?xml version="1.0" encoding="utf-8"?>
<!-- Generator: Adobe Illustrator 27.0.1, SVG Export Plug-In . SVG Version: 6.00 Build 0)  -->
<svg version="1.1" id="图层_1" xmlns="http://www.w3.org/2000/svg" xmlns:xlink="http://www.w3.org/1999/xlink" x="0px" y="0px"
	 viewBox="0 0 48 48" style="enable-background:new 0 0 48 48;" xml:space="preserve">
<style type="text/css">
	.st0{fill:#999999;}
</style>
<path class="st0" d="M25.1,1.3c0.5,0.2,0.9,0.6,1.1,1.1l6.1,12.3l13.6,2c1.3,0.2,2.3,1.4,2.1,2.8c-0.1,0.5-0.3,1-0.7,1.4l-9.8,9.6
	l2.3,13.6c0.2,1.3-0.7,2.6-2,2.8c-0.5,0.1-1.1,0-1.6-0.2L24,40.3l-12.2,6.4c-1.2,0.6-2.7,0.2-3.3-1c-0.2-0.5-0.3-1-0.2-1.6l2.3-13.6
	l-9.8-9.6c-1-1-1-2.5-0.1-3.5c0.4-0.4,0.9-0.6,1.4-0.7l13.6-2l6.1-12.3C22.4,1.2,23.9,0.7,25.1,1.3L25.1,1.3z M29,19.2L24,9l-5,10.2
	L7.7,20.9l8.1,7.9L13.9,40L24,34.7L34,40l-1.9-11.2l8.1-7.9L29,19.2L29,19.2z"/>
</svg>
